<svg width="32" height="32" viewBox="0 0 32 32" fill="none" xmlns="http://www.w3.org/2000/svg">
<path d="M25.0625 0H6.93849C4.92592 0 3.29517 1.63148 3.29517 3.64332V28.3567C3.29517 30.3685 4.92592 32 6.93849 32H25.0611C27.0737 32 28.7044 30.3685 28.7044 28.3567V3.64332C28.7059 1.63148 27.0729 0 25.0625 0ZM6.70968 12.2816C6.70968 11.4276 7.40264 10.7361 8.25518 10.7361H8.79585C8.21948 10.0993 7.86535 9.25695 7.86535 8.32863C7.86535 6.34448 9.47496 4.73559 11.4591 4.73559C13.4447 4.73559 15.0529 6.34375 15.0529 8.32936C15.0529 9.25622 14.6988 10.0993 14.1209 10.7361H14.6375C15.4915 10.7361 16.183 11.4276 16.183 12.2816V14.8888C16.183 15.7063 15.5455 16.368 14.7439 16.4234H8.1488C7.34727 16.368 6.70968 15.7063 6.70968 14.8888V12.2816ZM23.8333 27.2637H8.16701C7.36257 27.2637 6.70968 26.6108 6.70968 25.8064C6.70968 25.0019 7.36257 24.349 8.16701 24.349H23.8333C24.6377 24.349 25.2906 25.0019 25.2906 25.8064C25.2906 26.6108 24.6377 27.2637 23.8333 27.2637ZM23.8333 21.7987H8.16701C7.36257 21.7987 6.70968 21.1458 6.70968 20.3414C6.70968 19.5369 7.36257 18.8841 8.16701 18.8841H23.8333C24.6377 18.8841 25.2906 19.5369 25.2906 20.3414C25.2906 21.1458 24.6377 21.7987 23.8333 21.7987ZM23.8333 16.3337H19.097C18.2925 16.3337 17.6396 15.6808 17.6396 14.8764C17.6396 14.072 18.2925 13.4191 19.097 13.4191H23.8333C24.6377 13.4191 25.2906 14.072 25.2906 14.8764C25.2906 15.6808 24.6377 16.3337 23.8333 16.3337Z" fill="white"/>
</svg>
