<svg width="32" height="32" viewBox="0 0 32 32" fill="none" xmlns="http://www.w3.org/2000/svg">
<path d="M16.0314 3.89227C8.52605 3.89227 2.44199 9.97633 2.44199 17.4816C2.44199 24.987 8.52605 31.0713 16.0314 31.0713C23.5367 31.0713 29.6207 24.9873 29.6207 17.482C29.6207 9.97664 23.5367 3.89227 16.0314 3.89227ZM27.2457 17.482C27.2457 18.997 26.9495 20.4654 26.3654 21.8463C25.8007 23.1813 24.9917 24.381 23.9611 25.4116C22.9304 26.4423 21.7307 27.2513 20.3957 27.816C19.0148 28.4001 17.5464 28.6963 16.0314 28.6963C14.5164 28.6963 13.0479 28.4001 11.667 27.816C10.332 27.2513 9.13231 26.4423 8.10168 25.4116C7.07105 24.381 6.26199 23.1813 5.6973 21.8463C5.11324 20.4654 4.81699 18.997 4.81699 17.482C4.81699 15.967 5.11324 14.4985 5.6973 13.1176C6.26199 11.7826 7.07105 10.5829 8.10168 9.55227C9.13231 8.52164 10.332 7.71258 11.667 7.14789C13.0479 6.56383 14.5164 6.26758 16.0314 6.26758C17.5464 6.26758 19.0148 6.56383 20.3957 7.14789C21.7307 7.71258 22.9304 8.52164 23.9611 9.55227C24.9917 10.5829 25.8007 11.7826 26.3654 13.1176C26.9495 14.4985 27.2457 15.967 27.2457 17.482ZM6.35355 2.5607C5.8898 2.09695 5.13793 2.09695 4.67418 2.5607L0.483555 6.75133C0.0198047 7.21508 0.0198047 7.96695 0.483555 8.4307C0.71543 8.66258 1.01949 8.77852 1.32324 8.77852C1.62699 8.77852 1.93105 8.66258 2.16293 8.4307L6.35355 4.24008C6.8173 3.77633 6.8173 3.02445 6.35355 2.5607ZM31.5789 6.75133L27.3886 2.5607C26.9248 2.09695 26.1729 2.09695 25.7092 2.5607C25.2454 3.02445 25.2454 3.77633 25.7092 4.24008L29.8995 8.4307C30.1314 8.66258 30.4351 8.77852 30.7392 8.77852C31.0429 8.77852 31.347 8.66258 31.5789 8.4307C32.0426 7.96695 32.0426 7.21508 31.5789 6.75133Z" fill="white"/>
<path d="M17.2188 16.2946V10.624C17.2188 9.96809 16.6872 9.43652 16.0312 9.43652C15.3753 9.43652 14.8438 9.96809 14.8438 10.624V17.4821C14.8438 18.1381 15.3753 18.6696 16.0312 18.6696H23.3356C23.9916 18.6696 24.5231 18.1381 24.5231 17.4821C24.5231 16.8262 23.9916 16.2946 23.3356 16.2946H17.2188Z" fill="white"/>
</svg>
